<svg xmlns="http://www.w3.org/2000/svg" width="24" height="24" viewBox="0 0 24 24" fill="none">
    <path fill-rule="evenodd" clip-rule="evenodd"
        d="M9.0934 3.53021C8.91116 4.07694 8.49518 4.50673 7.99167 4.78709C7.91335 4.83069 7.83582 4.87554 7.7591 4.9216C7.26441 5.21857 6.68355 5.36439 6.11827 5.24871L4.9165 5.00278C4.07311 4.8302 3.21392 5.21665 2.78349 5.96218L2.1625 7.03775C1.73207 7.78328 1.82699 8.72059 2.39815 9.36469L3.21318 10.2838C3.59509 10.7145 3.76015 11.2889 3.75103 11.8644C3.7496 11.9548 3.74959 12.0452 3.75103 12.1355C3.76014 12.7111 3.59509 13.2854 3.21317 13.7161L2.39815 14.6352C1.82699 15.2793 1.73207 16.2167 2.1625 16.9622L2.78349 18.0378C3.21392 18.7833 4.07311 19.1697 4.9165 18.9971L6.11819 18.7512C6.68348 18.6356 7.26434 18.7814 7.75904 19.0784C7.83578 19.1244 7.91333 19.1693 7.99167 19.2129C8.49518 19.4933 8.91116 19.9231 9.0934 20.4698L9.48095 21.6325C9.75318 22.4491 10.5175 23 11.3783 23H12.6203C13.4811 23 14.2454 22.4491 14.5176 21.6325L14.9052 20.4698C15.0874 19.9231 15.5034 19.4933 16.0069 19.2129C16.0853 19.1693 16.1628 19.1244 16.2396 19.0784C16.7343 18.7814 17.3151 18.6356 17.8804 18.7512L19.0821 18.9971C19.9254 19.1697 20.7846 18.7833 21.2151 18.0378L21.836 16.9622C22.2665 16.2167 22.1716 15.2793 21.6004 14.6352L20.7854 13.7162C20.4035 13.2855 20.2385 12.7111 20.2476 12.1356C20.249 12.0452 20.249 11.9548 20.2476 11.8644C20.2385 11.2888 20.4035 10.7144 20.7854 10.2838L21.6004 9.36469C22.1716 8.72059 22.2665 7.78328 21.836 7.03775L21.2151 5.96218C20.7846 5.21666 19.9254 4.8302 19.0821 5.00279L17.8803 5.2487C17.315 5.36438 16.7342 5.21857 16.2395 4.92159C16.1628 4.87554 16.0852 4.83069 16.0069 4.78709C15.5034 4.50673 15.0874 4.07694 14.9052 3.53021L14.5176 2.36754C14.2454 1.55086 13.4811 1 12.6203 1H11.3783C10.5175 1 9.75318 1.55086 9.48095 2.36754L9.0934 3.53021ZM14.9994 12C14.9994 13.6569 13.6562 15 11.9994 15C10.3425 15 8.99936 13.6569 8.99936 12C8.99936 10.3431 10.3425 9 11.9994 9C13.6562 9 14.9994 10.3431 14.9994 12Z"
        fill="#979995" />
</svg>