<svg xmlns="http://www.w3.org/2000/svg" width="16" height="16" viewBox="0 0 16 16" fill="none">
  <path d="M14.9719 13.995L8.39155 1.77217C8.37016 1.73241 8.33839 1.69918 8.29963 1.67602C8.26087 1.65286 8.21655 1.64062 8.1714 1.64062C8.12624 1.64062 8.08193 1.65286 8.04317 1.67602C8.0044 1.69918 7.97264 1.73241 7.95124 1.77217L1.36968 13.995C1.34918 14.0331 1.33893 14.0758 1.33991 14.1191C1.34089 14.1623 1.35308 14.2046 1.37528 14.2417C1.39748 14.2789 1.42894 14.3096 1.46657 14.3309C1.50421 14.3522 1.54673 14.3634 1.58999 14.3634H14.7531C14.7962 14.3632 14.8386 14.3518 14.876 14.3303C14.9134 14.3089 14.9447 14.2781 14.9667 14.2411C14.9887 14.204 15.0007 14.1618 15.0016 14.1187C15.0026 14.0756 14.9923 14.033 14.9719 13.995ZM8.79624 12.8609H7.54624V11.6109H8.79624V12.8609ZM8.67124 10.8634H7.67124L7.48374 5.86342H8.85874L8.67124 10.8634Z" fill="#E6CF00"/>
</svg>